<svg width="136" height="56" viewBox="0 0 136 56" fill="none" xmlns="http://www.w3.org/2000/svg">
<rect width="136" height="56" fill="#2F2F2F"/>
<path d="M28.282 19.27C29.426 19.27 30.4233 19.4093 31.274 19.688C32.1393 19.952 32.8653 20.3847 33.452 20.986C34.0387 21.5727 34.4787 22.3353 34.772 23.274C35.0653 24.2127 35.212 25.3493 35.212 26.684V27.498C35.212 28.8327 35.0653 29.9693 34.772 30.908C34.4787 31.8467 34.0387 32.6167 33.452 33.218C32.8653 33.8047 32.1393 34.2373 31.274 34.516C30.4233 34.78 29.426 34.912 28.282 34.912H24.652C23.948 34.912 23.4567 34.78 23.178 34.516C22.914 34.252 22.782 33.7753 22.782 33.086V21.096C22.782 20.4067 22.914 19.93 23.178 19.666C23.4567 19.402 23.948 19.27 24.652 19.27H28.282ZM25.576 32.536H27.908C28.7147 32.536 29.3967 32.448 29.954 32.272C30.526 32.096 30.988 31.8027 31.34 31.392C31.7067 30.9813 31.9707 30.446 32.132 29.786C32.2933 29.1113 32.374 28.2753 32.374 27.278V26.904C32.374 25.9213 32.2933 25.0927 32.132 24.418C31.9707 23.7433 31.7067 23.2007 31.34 22.79C30.988 22.3793 30.526 22.086 29.954 21.91C29.3967 21.734 28.7147 21.646 27.908 21.646H25.576V32.536ZM43.9283 22.966C44.4416 22.966 44.8376 23.0467 45.1163 23.208C45.3803 23.3547 45.5563 23.5453 45.6443 23.78C45.7323 24.0147 45.747 24.286 45.6883 24.594C45.615 25.0047 45.4463 25.3273 45.1823 25.562C44.933 25.782 44.6396 25.8553 44.3023 25.782C44.1116 25.7527 43.9283 25.716 43.7523 25.672C43.5763 25.628 43.393 25.606 43.2023 25.606C42.865 25.606 42.5496 25.672 42.2563 25.804C41.9776 25.936 41.7283 26.1193 41.5083 26.354C41.303 26.574 41.1343 26.8453 41.0023 27.168C40.885 27.476 40.8263 27.8133 40.8263 28.18V33.878C40.8263 34.274 40.687 34.5673 40.4083 34.758C40.1296 34.9487 39.807 35.044 39.4403 35.044C39.0883 35.044 38.7656 34.9487 38.4723 34.758C38.1936 34.5673 38.0543 34.274 38.0543 33.878V24.22C38.0543 23.8387 38.1863 23.56 38.4503 23.384C38.729 23.1933 39.037 23.098 39.3743 23.098C39.7263 23.098 40.0343 23.1933 40.2983 23.384C40.577 23.56 40.7163 23.8387 40.7163 24.22V24.99H40.7603C41.0683 24.374 41.501 23.8827 42.0583 23.516C42.6156 23.1493 43.239 22.966 43.9283 22.966ZM52.5193 25.254C51.5953 25.254 50.8986 25.496 50.4293 25.98C49.9746 26.464 49.7473 27.08 49.7473 27.828V27.982H55.2033V27.762C55.2033 27.0433 54.998 26.4493 54.5873 25.98C54.1766 25.496 53.4873 25.254 52.5193 25.254ZM52.5633 22.966C53.3553 22.966 54.074 23.0833 54.7193 23.318C55.3646 23.5527 55.922 23.89 56.3913 24.33C56.8606 24.77 57.22 25.3127 57.4693 25.958C57.7333 26.6033 57.8653 27.344 57.8653 28.18V28.224C57.8653 28.9133 57.726 29.39 57.4473 29.654C57.1833 29.918 56.6993 30.05 55.9953 30.05H49.7473V30.094C49.7473 30.886 49.9893 31.5313 50.4733 32.03C50.972 32.5287 51.7126 32.778 52.6953 32.778C53.3113 32.778 53.8466 32.734 54.3013 32.646C54.7706 32.5433 55.2473 32.382 55.7313 32.162C56.0246 32.03 56.3106 32.0153 56.5893 32.118C56.868 32.206 57.0733 32.404 57.2053 32.712C57.3373 33.02 57.3666 33.3207 57.2933 33.614C57.22 33.8927 57.0366 34.1053 56.7433 34.252C56.186 34.5307 55.5773 34.7433 54.9173 34.89C54.2573 35.022 53.48 35.088 52.5853 35.088C50.8253 35.088 49.4613 34.6113 48.4933 33.658C47.5253 32.69 47.0413 31.2453 47.0413 29.324V28.752C47.0413 26.8453 47.5326 25.408 48.5153 24.44C49.498 23.4573 50.8473 22.966 52.5633 22.966ZM64.488 29.918C63.7547 29.918 63.2413 30.0573 62.948 30.336C62.6693 30.6147 62.53 30.9887 62.53 31.458V31.502C62.53 32.3527 63.08 32.778 64.18 32.778C65.0453 32.778 65.7273 32.6313 66.226 32.338C66.578 32.1327 66.8273 31.8907 66.974 31.612C67.1353 31.3333 67.216 30.9593 67.216 30.49V29.918H64.488ZM65.06 22.966C65.764 22.966 66.4167 23.054 67.018 23.23C67.6193 23.406 68.1327 23.6627 68.558 24C68.998 24.3227 69.3353 24.726 69.57 25.21C69.8193 25.6793 69.944 26.222 69.944 26.838V33.988C69.944 34.3547 69.812 34.626 69.548 34.802C69.2987 34.9633 69.0127 35.044 68.69 35.044C68.3673 35.044 68.074 34.9633 67.81 34.802C67.5607 34.626 67.436 34.3547 67.436 33.988V33.416H67.414C67.2967 33.6653 67.128 33.8853 66.908 34.076C66.688 34.2667 66.424 34.4427 66.116 34.604C65.8227 34.7507 65.4853 34.868 65.104 34.956C64.7227 35.044 64.3413 35.088 63.96 35.088C62.64 35.088 61.6207 34.7873 60.902 34.186C60.198 33.5847 59.846 32.734 59.846 31.634V31.282C59.846 30.7833 59.9193 30.3213 60.066 29.896C60.2273 29.4707 60.484 29.104 60.836 28.796C61.2027 28.4733 61.672 28.224 62.244 28.048C62.8307 27.872 63.5567 27.784 64.422 27.784H67.194V27.476C67.194 26.728 67.018 26.1927 66.666 25.87C66.3287 25.5327 65.786 25.364 65.038 25.364C64.0407 25.364 63.102 25.628 62.222 26.156C61.9287 26.332 61.6353 26.3833 61.342 26.31C61.0633 26.222 60.836 26.0313 60.66 25.738C60.4987 25.4593 60.4327 25.1733 60.462 24.88C60.506 24.572 60.6747 24.3227 60.968 24.132C61.496 23.78 62.112 23.5013 62.816 23.296C63.5347 23.076 64.2827 22.966 65.06 22.966ZM79.0578 22.966C79.8058 22.966 80.4732 23.1347 81.0598 23.472C81.6612 23.8093 82.0718 24.2567 82.2918 24.814C82.7172 24.198 83.2158 23.736 83.7878 23.428C84.3745 23.12 85.1298 22.966 86.0538 22.966C86.6112 22.966 87.1392 23.0613 87.6378 23.252C88.1512 23.4427 88.5985 23.7287 88.9798 24.11C89.3612 24.4913 89.6618 24.968 89.8818 25.54C90.1165 26.112 90.2338 26.7793 90.2338 27.542V33.878C90.2338 34.274 90.0945 34.5673 89.8158 34.758C89.5372 34.9487 89.2145 35.044 88.8478 35.044C88.4958 35.044 88.1732 34.9487 87.8798 34.758C87.6012 34.5673 87.4618 34.274 87.4618 33.878V28.114C87.4618 27.5713 87.4032 27.124 87.2858 26.772C87.1685 26.42 87.0072 26.1487 86.8018 25.958C86.5965 25.7527 86.3618 25.6133 86.0978 25.54C85.8338 25.4667 85.5552 25.43 85.2618 25.43C84.9978 25.43 84.7265 25.474 84.4478 25.562C84.1838 25.6353 83.9492 25.7747 83.7438 25.98C83.5385 26.1707 83.3698 26.4347 83.2378 26.772C83.1058 27.1093 83.0398 27.5273 83.0398 28.026V33.878C83.0398 34.274 82.9005 34.5673 82.6218 34.758C82.3432 34.9487 82.0205 35.044 81.6538 35.044C81.3018 35.044 80.9792 34.9487 80.6858 34.758C80.4072 34.5673 80.2678 34.274 80.2678 33.878V28.07C80.2678 27.5567 80.2092 27.1313 80.0918 26.794C79.9745 26.4567 79.8132 26.1853 79.6078 25.98C79.4172 25.7747 79.1898 25.6353 78.9258 25.562C78.6618 25.474 78.3758 25.43 78.0678 25.43C77.4078 25.43 76.8725 25.6353 76.4618 26.046C76.0512 26.4567 75.8458 27.08 75.8458 27.916V33.878C75.8458 34.274 75.7065 34.5673 75.4278 34.758C75.1492 34.9487 74.8265 35.044 74.4598 35.044C74.1078 35.044 73.7852 34.9487 73.4918 34.758C73.2132 34.5673 73.0738 34.274 73.0738 33.878V24.22C73.0738 23.8387 73.2058 23.56 73.4698 23.384C73.7338 23.1933 74.0345 23.098 74.3718 23.098C74.7092 23.098 75.0098 23.1933 75.2738 23.384C75.5525 23.56 75.6918 23.8387 75.6918 24.22V24.836C76.0145 24.2347 76.4618 23.7727 77.0338 23.45C77.6058 23.1273 78.2805 22.966 79.0578 22.966ZM100.46 19.138C100.841 19.138 101.171 19.2333 101.45 19.424C101.728 19.6147 101.868 19.9227 101.868 20.348V33.834C101.868 34.2593 101.728 34.5673 101.45 34.758C101.171 34.9487 100.841 35.044 100.46 35.044C100.078 35.044 99.7482 34.9487 99.4695 34.758C99.1909 34.5673 99.0515 34.2593 99.0515 33.834V20.348C99.0515 19.9227 99.1909 19.6147 99.4695 19.424C99.7482 19.2333 100.078 19.138 100.46 19.138ZM107.456 19.996C107.823 19.996 108.146 20.0913 108.424 20.282C108.703 20.4727 108.842 20.7733 108.842 21.184V23.23H111.152C111.49 23.23 111.732 23.3473 111.878 23.582C112.04 23.802 112.12 24.066 112.12 24.374C112.12 24.682 112.04 24.9533 111.878 25.188C111.732 25.408 111.49 25.518 111.152 25.518H108.842V31.326C108.842 32.2647 109.202 32.734 109.92 32.734C110.258 32.734 110.595 32.6753 110.932 32.558C111.167 32.4847 111.402 32.4993 111.636 32.602C111.871 32.7047 112.047 32.932 112.164 33.284C112.267 33.592 112.267 33.878 112.164 34.142C112.076 34.406 111.893 34.5967 111.614 34.714C111.35 34.8313 111.05 34.9267 110.712 35C110.375 35.0587 110.03 35.088 109.678 35.088C108.373 35.088 107.442 34.7653 106.884 34.12C106.342 33.46 106.07 32.4847 106.07 31.194V25.518H104.97C104.633 25.518 104.384 25.408 104.222 25.188C104.076 24.9533 104.002 24.682 104.002 24.374C104.002 24.066 104.076 23.802 104.222 23.582C104.384 23.3473 104.633 23.23 104.97 23.23H106.07V21.184C106.07 20.7733 106.21 20.4727 106.488 20.282C106.767 20.0913 107.09 19.996 107.456 19.996Z" fill="white"/>
</svg>
